# xmcd
#
# Track frame offsets: 
#        150
#        11323
#        27910
#        40849
#        52734
#        66357
#        77111
#        89563
#        101888
#        111544
#        121933
#        133942
#        147088
#        163180
#        179796
#        199108
#        211794
#        229268
#        246074
#
# Disc length: 3500 seconds
#
# Revision: 7
# Processed by: cddbd v1.5.2PL0 Copyright (c) Steve Scherf et al.
# Submitted via: ExactAudioCopy v1.3
#
DISCID=120daa13
DTITLE=Memphis Slim - Six Classic Albums
DYEAR=2016
DGENRE=Blues
TTITLE0=Lonesome (from- Memphis Slim - The world's foremost blues sing
TTITLE0=er  - 1961)
TTITLE1=Cold Blooded Woman (from- Memphis Slim - The world's foremost 
TTITLE1=blues singer  - 1961)
TTITLE2=One Man's Mad (from- Memphis Slim - The world's foremost blues
TTITLE2=singer  - 1961)
TTITLE3=Good Time Roll Creole (from- Memphis Slim - The world's foremo
TTITLE3=st blues singer  - 1961)
TTITLE4=What is the Mare Rack (from- Memphis Slim - The world's foremo
TTITLE4=st blues singer  - 1961)
TTITLE5=Pigalle Love (from- Memphis Slim - The world's foremost blues 
TTITLE5=singer  - 1961)
TTITLE6=Four Walls (from- Memphis Slim - The world's foremost blues si
TTITLE6=nger  - 1961)
TTITLE7=It's Been Too Long (from- Memphis Slim - The world's foremost 
TTITLE7=blues singer  - 1961)
TTITLE8=Big Bertha (from- Memphis Slim - The world's foremost blues si
TTITLE8=nger  - 1961)
TTITLE9=I'm Lost Without You (from- Memphis Slim - The world's foremos
TTITLE9=t blues singer  - 1961)
TTITLE10=I'll Just Keep On Swinging With the Blues (from- Memphis Slim
TTITLE10=The world's foremost blues singer  - 1961)
TTITLE11=True Love (from- Memphis Slim - The world's foremost blues si
TTITLE11=nger  - 1961)
TTITLE12=Born Wth the Blues (from- Memphis Slim - Memphis Slim, U.S.A.
TTITLE12=1961)
TTITLE13=Just Let Me Be (from- Memphis Slim - Memphis Slim, U.S.A. - 1
TTITLE13=961)
TTITLE14=Highway 51 Blues (from- Memphis Slim - Alone with my friends 
TTITLE14=1961)
TTITLE15=I Feel So Good (from- Memphis Slim - Alone with my friends - 
TTITLE15=1961)
TTITLE16=Rock Me, Baby (from- Memphis Slim - Alone with my friends - 1
TTITLE16=961)
TTITLE17=Goin' Down Slow (from- Memphis Slim - Alone with my friends -
TTITLE17=1961)
TTITLE18=Sittin' on Top of the World (from- Memphis Slim - Alone with 
TTITLE18=my friends - 1961)
EXTD=
EXTT0=
EXTT1=
EXTT2=
EXTT3=
EXTT4=
EXTT5=
EXTT6=
EXTT7=
EXTT8=
EXTT9=
EXTT10=
EXTT11=
EXTT12=
EXTT13=
EXTT14=
EXTT15=
EXTT16=
EXTT17=
EXTT18=
PLAYORDER=
